<svg width="300" height="200" viewBox="0 0 300 200" xmlns="http://www.w3.org/2000/svg" xmlns:xlink="http://www.w3.org/1999/xlink"><title>Custom Preset</title><defs><path d="M.123 7.26c0 6.638 6.581 11.617 6.581 11.617s6.58-4.979 6.58-11.617c0-3.667-2.946-6.639-6.58-6.639C3.069.621.123 3.593.123 7.26z" id="a"/><path d="M.413 4.26c0 1.833 1.473 3.319 3.291 3.319 1.817 0 3.29-1.486 3.29-3.319 0-1.834-1.473-3.319-3.29-3.319C1.886.941.413 2.426.413 4.26z" id="c"/><path id="e" d="M0 72h58.001V0H0z"/></defs><g fill="none" fill-rule="evenodd"><g stroke="#4A4A4A" stroke-width="2" stroke-linecap="round" stroke-linejoin="round"><path d="M136.153 119.88l-1.062 11.8c0 .242-1.816 1.963-5.105 1.681-4.117-.354-7.75-2.857-7.75-2.857s-4.693 2.407-8.5 2.75c-3.69.332-4.395-.978-4.395-1.25l-2-11.938m-.201-3.562c.053-.233 1.055-3.972 1.137-4.189 6.843-18.31 10.493-8.894 13.793-8.894 3.25 0 5.617-9.667 13.742 10.541"/><path d="M132.79 123.352a4.056 4.056 0 1 1-7.887 1.896l7.887-1.896zm-13.687 2.16a4.08 4.08 0 0 1-7.839-2.264l7.84 2.264zm-9.637 6.868s2.684 9.582 12.476 9.582c9.875 0 13.024-9.645 13.024-9.645m-14.479-29.397l3.667 2.5m11.936 8.46c3.854.708 6.293 1.782 6.293 2.864 0 2.163-8.932 3.917-20.691 3.917-11.76 0-20.692-1.754-20.692-3.917 0-1.078 2.198-2.032 6.029-2.74"/><path d="M123.778 116.567s2.043.045 4.312-.187a29.492 29.492 0 0 0 4.126-.75m-12.324.818h-2.542"/></g><g stroke="#4A4A4A" stroke-width="2" stroke-linecap="round" stroke-linejoin="round"><path d="M218.135 16h-14.27A2.874 2.874 0 0 1 201 13.135v-8.27A2.874 2.874 0 0 1 203.866 2h14.269A2.873 2.873 0 0 1 221 4.865v8.27A2.873 2.873 0 0 1 218.135 16z"/><path d="M201 6l10 4 10-4"/></g><g stroke="#4A4A4A" stroke-width="2" stroke-linecap="round" stroke-linejoin="round"><path d="M167.373 60h-60.745c-3.095 0-5.628-2.532-5.628-5.627V17.627c0-3.095 2.533-5.627 5.628-5.627h60.745c3.095 0 5.627 2.532 5.627 5.627v36.746c0 3.095-2.532 5.627-5.627 5.627zM125.75 12h-1.5a1.25 1.25 0 0 1-1.25-1.25V6.36A4.36 4.36 0 0 1 127.36 2h19.28A4.36 4.36 0 0 1 151 6.36v4.39c0 .69-.56 1.25-1.25 1.25h-1.5a1.25 1.25 0 0 1-1.25-1.25v-3.5c0-.69-.56-1.25-1.25-1.25h-17.5A1.25 1.25 0 0 0 127 7.25v3.5c0 .69-.56 1.25-1.25 1.25zM139 54h34m-72 0h38m14-16.011C164.89 35.069 173 30 173 30m-32 9.869a67.347 67.347 0 0 0 8-1.014M101 30s13.908 8.693 31.999 9.869"/><path d="M139.099 46h-4.197A1.902 1.902 0 0 1 133 44.099v-8.198c0-1.05.852-1.901 1.902-1.901h4.197a1.9 1.9 0 0 1 1.9 1.901v8.198A1.9 1.9 0 0 1 139.1 46zM111 10h6m40 0h6m-28 36v8m4-8v8m-2-14v2-4zm-24-4v14m48-14v18"/></g><g stroke="#4A4A4A" stroke-width="2" stroke-linecap="round" stroke-linejoin="round"><path d="M16.48 127.836c-5.067 0-9.214-4.147-9.214-9.215v-5.266c0-8.952 4.147-11.848 9.215-11.848v1.782c5.068 0 9.215.85 9.215 10.066v5.266c0 5.068-4.147 9.215-9.215 9.215z"/><path d="M7.266 116.453s2.15-7.048 6.319-7.048h5.792c4.213 0 6.319 7.048 6.319 7.048M7.266 141C4.37 141 2 138.63 2 135.734c0-5.017 8.65-8.398 11.548-8.398m5.882.1c2.896 0 11.532 3.615 11.532 8.299 0 2.896-2.37 5.265-5.266 5.265H13.583m16.703-35.342c2.885 0 7.092.655 7.092 7.747v4.052c0 3.901-3.19 7.092-7.092 7.092"/><path d="M32.326 124.25c2.229 0 7.795 2.613 7.795 5.723a4.064 4.064 0 0 1-4.052 4.053m1.309-19.036s-3.389.564-6.335-.745a13.35 13.35 0 0 1-1.625-.857"/><path d="M37.4 111.68s4.093.382 3.383 4.911c-.553 3.532 3.056 5.62 3.056 5.62a6.278 6.278 0 0 1-1.744.453 5.717 5.717 0 0 1-1.641-.06c-2.212-.404-3.6-1.975-3.6-1.975"/></g><g stroke="#4A4A4A" stroke-width="2" stroke-linecap="round" stroke-linejoin="round"><path d="M86.004 122.25c0 9.389-7.611 17-17 17s-17-7.611-17-17c0 0-.406-6.156 7-11.667 8.195-6.097 6.25-9.583 6.25-9.583s7.51 2.955 6.75 11.25c-.938 10.229 10.125 8.813 7.313-.328 0 0 6.687 2.161 6.687 10.328z"/><path d="M72.324 133.785a12 12 0 0 1-3.32.465 11.998 11.998 0 0 1-10.554-6.285"/></g><g stroke="#4A4A4A" stroke-width="2" stroke-linecap="round" stroke-linejoin="round"><path d="M227 8.8v8c0 1.657 4.029 3 9 3s9-1.343 9-3v-8m-18 0c0-1.657 4.029-3 9-3s9 1.343 9 3m-14-1V2m5 6.8V3m5 4.8V2"/><path d="M227.167 10.008s-.042 2.23 2.083 2.48 3.375-1.063 3.375-1.063 1.438 1.75 3.813 1.687c2.375-.062 3.437-1.937 3.437-1.937s.938 1.375 2.563 1.312c1.625-.062 2.375-2.125 2.375-2.125"/></g><g transform="translate(252 1.502)"><mask id="b" fill="#fff"><use xlink:href="#a"/></mask><path stroke="#4A4A4A" stroke-width="2" stroke-linecap="round" stroke-linejoin="round" mask="url(#b)" d="M-2 21h17.407V-1.502H-2z"/><path stroke="#4A4A4A" stroke-width="2" stroke-linecap="round" stroke-linejoin="round" mask="url(#b)" d="M.123 18.877h13.161V.621H.123z"/></g><path d="M265.284 8.761c0 6.64-6.58 11.617-6.58 11.617s-6.58-4.978-6.58-11.617c0-3.666 2.945-6.639 6.58-6.639 3.634 0 6.58 2.973 6.58 6.64" stroke="#4A4A4A" stroke-width="2" stroke-linecap="round" stroke-linejoin="round"/><path d="M261.994 8.761c0 1.833-1.473 3.32-3.29 3.32-1.818 0-3.291-1.487-3.291-3.32 0-1.833 1.473-3.319 3.29-3.319 1.818 0 3.29 1.486 3.29 3.32" fill="#4A4A4A"/><g transform="translate(255 4.502)"><mask id="d" fill="#fff"><use xlink:href="#c"/></mask><path fill="#4A4A4A" mask="url(#d)" d="M-2.877 15.877h13.161V-2.379H-2.877z"/><path fill="#4A4A4A" mask="url(#d)" d="M-1.71 9.702H9.116V-1.182H-1.71z"/></g><path d="M220.135 44h-16.27A2.874 2.874 0 0 1 201 41.135v-8.27A2.874 2.874 0 0 1 203.866 30h16.269A2.873 2.873 0 0 1 223 32.865v8.27A2.873 2.873 0 0 1 220.135 44zM201 34h22M245.135 46h-12.27A2.874 2.874 0 0 1 230 43.135v-8.27A2.874 2.874 0 0 1 232.866 32h12.269A2.873 2.873 0 0 1 248 34.865v8.27A2.873 2.873 0 0 1 245.135 46zM230 42h18m-14-12v2m10-2v2M270.135 48h-12.27A2.874 2.874 0 0 1 255 45.135v-6.27A2.874 2.874 0 0 1 257.866 36h12.269A2.873 2.873 0 0 1 273 38.865v6.27A2.873 2.873 0 0 1 270.135 48zM259 36v-1c0-2.75 2.25-5 5-5s5 2.25 5 5v1M42 38H22" stroke="#4A4A4A" stroke-width="2" stroke-linecap="round" stroke-linejoin="round"/><g transform="translate(1 1)"><path d="M13 43V21c0-1.1.9-2 2-2s2 .9 2 2v22h-4zm28 0V21c0-1.1.9-2 2-2s2 .9 2 2v22" stroke="#4A4A4A" stroke-width="2" stroke-linecap="round" stroke-linejoin="round"/><mask id="f" fill="#fff"><use xlink:href="#e"/></mask><path stroke="#4A4A4A" stroke-width="2" stroke-linecap="round" stroke-linejoin="round" mask="url(#f)" d="M11 49h8v-6h-8zm28 0h8v-6h-8zm-22 0v4c0 1.1-.9 2-2 2s-2-.9-2-2v-4m32 0v4c0 1.1-.9 2-2 2s-2-.9-2-2v-4M17.853 71V60.147A3.147 3.147 0 0 1 21 57h16a3.147 3.147 0 0 1 3.147 3.147V71M17.853 61h22.294M5 65h12.853M49 65h4m-12.853 0H45M25 15h8m-8 4h8M9 9V3.725A2.733 2.733 0 0 1 11.725 1h4.55A2.733 2.733 0 0 1 19 3.725M49 9V3.725A2.733 2.733 0 0 0 46.275 1h-4.55A2.733 2.733 0 0 0 39 3.725M13 37H7c-3.3 0-6-2.7-6-6V14.816c0-1.9 9.28-6.252 17.155-9.603A27.673 27.673 0 0 1 29.001 3"/><path d="M29 3c3.69 0 7.38.737 10.846 2.213 7.875 3.351 17.155 7.703 17.155 9.603V31c0 3.3-2.7 6-6 6h-6M53 37v28c0 3.3-2.7 6-6 6H29m0 0H11c-3.3 0-6-2.7-6-6V37" stroke="#4A4A4A" stroke-width="2" stroke-linecap="round" stroke-linejoin="round" mask="url(#f)"/></g><circle stroke="#ECECEC" fill="#F7F7F7" cx="191" cy="91" r="8"/><path d="M192.221 86v3.921c0 .42-.025.838-.075 1.251-.05.414-.117.835-.2 1.265h-1.439a19.43 19.43 0 0 1-.199-1.265 10.36 10.36 0 0 1-.075-1.25V86h1.988zM190 94.912a1.138 1.138 0 0 1 .346-.83 1.21 1.21 0 0 1 .86-.342c.17 0 .327.03.474.092.146.062.274.145.383.25a1.135 1.135 0 0 1 .35.83 1.162 1.162 0 0 1-.35.836 1.218 1.218 0 0 1-.856.336 1.25 1.25 0 0 1-.48-.09 1.15 1.15 0 0 1-.727-1.083z" fill="#4A4A4A"/></g></svg>
